<?xml version="1.0" standalone="no"?><!DOCTYPE svg PUBLIC "-//W3C//DTD SVG 1.1//EN" "http://www.w3.org/Graphics/SVG/1.1/DTD/svg11.dtd"><svg t="1598429188394" class="icon" viewBox="0 0 1526 1024" version="1.1" xmlns="http://www.w3.org/2000/svg" p-id="4804" xmlns:xlink="http://www.w3.org/1999/xlink" width="71.53125" height="48"><defs><style type="text/css"></style></defs><path d="M856.022987 1024a20.239269 20.239269 0 0 1 0-40.478537h375.719286c8.915977 0 222.275316-3.209752 253.481236-228.873139 14.354724-249.647366-206.583195-300.111798-215.944972-302.162473a20.239269 20.239269 0 0 1-15.870439-17.831955c0-3.209752-37.892904-322.580061-290.660862-381.514671C691.077405-10.431694 600.045276 187.413844 596.657205 195.884023a20.328428 20.328428 0 0 1-24.964737 11.412451c-3.83387-1.159077-96.827514-28.441968-208.72303 39.854418-96.025076 62.411842-81.046234 176.001393-80.243796 180.816021a20.328428 20.328428 0 0 1-15.959599 22.468263c-8.915977 1.961515-226.109186 49.929473-226.109186 290.215063 4.814628 237.254158 233.241968 242.336265 243.049543 242.336265h410.134958a20.239269 20.239269 0 0 1 20.239269 20.239269 19.88263 19.88263 0 0 1-20.328428 20.239268h-410.134959c-2.942273 0-277.643535-6.062865-283.43892-282.547322 0-231.815411 183.045015-307.422899 240.731388-325.522334-1.426556-40.924336 5.527906-141.229081 100.304746-202.927644 101.018024-61.698563 189.999478-54.654941 225.841706-48.057118C596.657205 113.322072 712.564911-47.07636 971.841532 13.463126c248.755768 58.043013 308.938616 337.291424 319.726949 402.913017 54.298302 16.851197 248.577449 94.776839 233.955246 341.036134v1.515716c-35.663909 261.773095-290.928341 264.715368-293.692295 264.715368H856.112146z" fill="#3A70EA" p-id="4805"></path><path d="M824.995385 935.018546V660.228124h135.701176l-203.551763-203.284284-203.640923 203.284284H689.20505v355.123378a7.84606 7.84606 0 0 0 12.393209 6.419504z" fill="#3A70EA" p-id="4806"></path></svg>